<svg width="187" height="72" viewBox="0 0 187 72" fill="none" xmlns="http://www.w3.org/2000/svg">
<path d="M187 71H0V73H187V71Z" fill="#EAECF0" mask="url(#path-1-inside-1_8230_41738)"/>
<g filter="url(#filter0_d_8230_41738)">
<rect x="41.5" y="16" width="104" height="40" rx="8" fill="#191F57"/>
<rect x="42" y="16.5" width="103" height="39" rx="7.5" stroke="#191F57"/>
<path d="M59.8118 41H57.843L61.4276 30.8182H63.7045L67.294 41H65.3253L62.6058 32.9062H62.5263L59.8118 41ZM59.8764 37.0078H65.2457V38.4893H59.8764V37.0078ZM71.157 41.1342C70.5571 41.1342 70.0201 40.9801 69.5462 40.6719C69.0722 40.3636 68.6977 39.9162 68.4226 39.3295C68.1475 38.7429 68.0099 38.0303 68.0099 37.1918C68.0099 36.3433 68.1491 35.6274 68.4276 35.044C68.7093 34.4574 69.0888 34.0149 69.5661 33.7166C70.0433 33.415 70.5753 33.2642 71.1619 33.2642C71.6094 33.2642 71.9773 33.3404 72.2656 33.4929C72.554 33.642 72.7827 33.8227 72.9517 34.0348C73.1207 34.2436 73.2517 34.4408 73.3445 34.6264H73.419V30.8182H75.2237V41H73.4538V39.7969H73.3445C73.2517 39.9825 73.1174 40.1797 72.9418 40.3885C72.7661 40.594 72.5341 40.7696 72.2457 40.9155C71.9574 41.0613 71.5945 41.1342 71.157 41.1342ZM71.6591 39.6577C72.0402 39.6577 72.3651 39.5549 72.6335 39.3494C72.902 39.1406 73.1058 38.8506 73.245 38.4794C73.3842 38.1082 73.4538 37.6757 73.4538 37.1818C73.4538 36.688 73.3842 36.2588 73.245 35.8942C73.1091 35.5296 72.907 35.2462 72.6385 35.044C72.3733 34.8419 72.0469 34.7408 71.6591 34.7408C71.258 34.7408 70.9233 34.8452 70.6548 35.054C70.3864 35.2628 70.1842 35.5511 70.0483 35.919C69.9124 36.2869 69.8445 36.7079 69.8445 37.1818C69.8445 37.6591 69.9124 38.085 70.0483 38.4595C70.1875 38.8307 70.3913 39.1241 70.6598 39.3395C70.9316 39.5516 71.2647 39.6577 71.6591 39.6577ZM77.1415 41V33.3636H78.8617V34.6612H78.9512C79.1103 34.2237 79.3738 33.8823 79.7417 33.6371C80.1096 33.3885 80.5487 33.2642 81.0591 33.2642C81.5762 33.2642 82.012 33.3902 82.3667 33.642C82.7246 33.8906 82.9765 34.2304 83.1223 34.6612H83.2019C83.3709 34.237 83.656 33.8989 84.057 33.647C84.4614 33.3918 84.9403 33.2642 85.4938 33.2642C86.1964 33.2642 86.7698 33.4863 87.214 33.9304C87.6581 34.3745 87.8801 35.0225 87.8801 35.8743V41H86.0755V36.1527C86.0755 35.6787 85.9495 35.3324 85.6976 35.1136C85.4457 34.8916 85.1375 34.7805 84.7729 34.7805C84.3387 34.7805 83.999 34.9164 83.7537 35.1882C83.5118 35.4567 83.3908 35.8063 83.3908 36.2372V41H81.6259V36.0781C81.6259 35.6837 81.5066 35.3688 81.2679 35.1335C81.0326 34.8982 80.7244 34.7805 80.3432 34.7805C80.0847 34.7805 79.8494 34.8468 79.6373 34.9794C79.4251 35.1087 79.2561 35.2926 79.1301 35.5312C79.0042 35.7666 78.9412 36.0417 78.9412 36.3565V41H77.1415ZM89.706 41V33.3636H91.5057V41H89.706ZM90.6108 32.2798C90.3258 32.2798 90.0805 32.1854 89.875 31.9964C89.6695 31.8042 89.5668 31.5739 89.5668 31.3054C89.5668 31.0336 89.6695 30.8033 89.875 30.6143C90.0805 30.4221 90.3258 30.326 90.6108 30.326C90.8991 30.326 91.1444 30.4221 91.3466 30.6143C91.5521 30.8033 91.6548 31.0336 91.6548 31.3054C91.6548 31.5739 91.5521 31.8042 91.3466 31.9964C91.1444 32.1854 90.8991 32.2798 90.6108 32.2798ZM95.1561 36.5256V41H93.3564V33.3636H95.0765V34.6612H95.166C95.3417 34.2337 95.6217 33.8939 96.0062 33.642C96.394 33.3902 96.8729 33.2642 97.443 33.2642C97.97 33.2642 98.429 33.3769 98.8201 33.6023C99.2145 33.8277 99.5195 34.1541 99.7349 34.5817C99.9537 35.0092 100.061 35.5279 100.058 36.1378V41H98.2583V36.4162C98.2583 35.9058 98.1258 35.5064 97.8606 35.218C97.5988 34.9297 97.2359 34.7855 96.7718 34.7855C96.457 34.7855 96.1769 34.8551 95.9316 34.9943C95.6897 35.1302 95.4991 35.3274 95.3599 35.5859C95.224 35.8445 95.1561 36.1577 95.1561 36.5256Z" fill="white"/>
<path d="M114.5 33.5L119.5 38.5L124.5 33.5" stroke="white" stroke-width="1.67" stroke-linecap="round" stroke-linejoin="round"/>
</g>
<defs>
<filter id="filter0_d_8230_41738" x="39.5" y="15" width="108" height="44" filterUnits="userSpaceOnUse" color-interpolation-filters="sRGB">
<feFlood flood-opacity="0" result="BackgroundImageFix"/>
<feColorMatrix in="SourceAlpha" type="matrix" values="0 0 0 0 0 0 0 0 0 0 0 0 0 0 0 0 0 0 127 0" result="hardAlpha"/>
<feOffset dy="1"/>
<feGaussianBlur stdDeviation="1"/>
<feColorMatrix type="matrix" values="0 0 0 0 0.0627451 0 0 0 0 0.0941176 0 0 0 0 0.156863 0 0 0 0.05 0"/>
<feBlend mode="normal" in2="BackgroundImageFix" result="effect1_dropShadow_8230_41738"/>
<feBlend mode="normal" in="SourceGraphic" in2="effect1_dropShadow_8230_41738" result="shape"/>
</filter>
</defs>
</svg>
